<svg width="44" height="32" viewBox="0 0 44 32" fill="none" xmlns="http://www.w3.org/2000/svg">
<path d="M41.4203 0.00387899C37.2341 0.226021 28.9137 1.03459 23.7772 3.97457C23.4228 4.17743 23.2219 4.53814 23.2219 4.91528V30.9059C23.2219 31.7309 24.1867 32.2523 25.0002 31.8694C30.2849 29.3823 37.9277 28.7037 41.7068 28.518C42.997 28.4545 44 27.4873 44 26.328V2.19673C44.0008 0.931732 42.8274 -0.0704064 41.4203 0.00387899ZM20.2228 3.97457C15.0871 1.03459 6.76664 0.226735 2.58046 0.00387899C1.17335 -0.0704064 0 0.931732 0 2.19673V26.3288C0 27.4887 1.003 28.4559 2.29323 28.5187C6.07379 28.7045 13.7204 29.3837 19.0051 31.8723C19.8164 32.2544 20.7781 31.7337 20.7781 30.9109V4.90243C20.7781 4.52457 20.578 4.17814 20.2228 3.97457Z" fill="black"/>
</svg>
