<svg width="49" height="52" viewBox="0 0 49 52" fill="none" xmlns="http://www.w3.org/2000/svg">
<path d="M48.8642 16.9236C49.1891 17.8074 48.9149 18.7927 48.2143 19.4225L43.8177 23.4249C43.9294 24.268 43.9903 25.1315 43.9903 26.0051C43.9903 26.8787 43.9294 27.7421 43.8177 28.5853L48.2143 32.5876C48.9149 33.2174 49.1891 34.2028 48.8642 35.0865C48.4174 36.2954 47.8792 37.4534 47.2599 38.5708L46.7826 39.3936C46.1125 40.511 45.3611 41.5675 44.5386 42.563C43.9395 43.2944 42.9445 43.5382 42.0509 43.2538L36.3952 41.4558C35.0346 42.5021 33.5319 43.3757 31.9275 44.0359L30.6583 49.8363C30.4552 50.7607 29.7445 51.4921 28.8103 51.6445C27.4091 51.8781 25.9672 52 24.4949 52C23.0226 52 21.5808 51.8781 20.1795 51.6445C19.2454 51.4921 18.5346 50.7607 18.3315 49.8363L17.0623 44.0359C15.458 43.3757 13.9552 42.5021 12.5946 41.4558L6.94907 43.2639C6.05553 43.5483 5.06045 43.2944 4.46137 42.5732C3.63891 41.5777 2.88753 40.5212 2.21737 39.4038L1.74014 38.581C1.12076 37.4636 0.582603 36.3055 0.135834 35.0967C-0.189089 34.2129 0.0850645 33.2276 0.78568 32.5978L5.1823 28.5954C5.07061 27.7421 5.00968 26.8787 5.00968 26.0051C5.00968 25.1315 5.07061 24.268 5.1823 23.4249L0.78568 19.4225C0.0850645 18.7927 -0.189089 17.8074 0.135834 16.9236C0.582603 15.7148 1.12076 14.5567 1.74014 13.4393L2.21737 12.6165C2.88753 11.4991 3.63891 10.4427 4.46137 9.44716C5.06045 8.71576 6.05553 8.47197 6.94907 8.7564L12.6048 10.5544C13.9654 9.50811 15.4681 8.6345 17.0725 7.97421L18.3417 2.17386C18.5448 1.24946 19.2555 0.51807 20.1897 0.365696C21.5909 0.121899 23.0328 0 24.5051 0C25.9774 0 27.4192 0.121899 28.8205 0.355538C29.7546 0.507912 30.4654 1.2393 30.6685 2.1637L31.9377 7.96406C33.542 8.62434 35.0448 9.49795 36.4054 10.5442L42.0611 8.74624C42.9546 8.46181 43.9497 8.71576 44.5488 9.437C45.3712 10.4325 46.1226 11.489 46.7928 12.6064L47.27 13.4292C47.8894 14.5466 48.4275 15.7046 48.8743 16.9135L48.8642 16.9236ZM24.5051 34.1317C28.9931 34.1317 32.6282 30.495 32.6282 26.0051C32.6282 21.5151 28.9931 17.8785 24.5051 17.8785C20.0171 17.8785 16.382 21.5151 16.382 26.0051C16.382 30.495 20.0171 34.1317 24.5051 34.1317Z" fill="black"/>
</svg>
