<svg width="36" height="27" viewBox="0 0 36 27" fill="none" xmlns="http://www.w3.org/2000/svg">
<path d="M5.4 11.5714C7.38562 11.5714 9 9.84174 9 7.71429C9 5.58683 7.38562 3.85714 5.4 3.85714C3.41438 3.85714 1.8 5.58683 1.8 7.71429C1.8 9.84174 3.41438 11.5714 5.4 11.5714ZM30.6 11.5714C32.5856 11.5714 34.2 9.84174 34.2 7.71429C34.2 5.58683 32.5856 3.85714 30.6 3.85714C28.6144 3.85714 27 5.58683 27 7.71429C27 9.84174 28.6144 11.5714 30.6 11.5714ZM32.4 13.5H28.8C27.81 13.5 26.9156 13.9279 26.2631 14.621C28.53 15.9529 30.1388 18.3576 30.4875 21.2143H34.2C35.1956 21.2143 36 20.3525 36 19.2857V17.3571C36 15.2297 34.3856 13.5 32.4 13.5ZM18 13.5C21.4819 13.5 24.3 10.4806 24.3 6.75C24.3 3.01942 21.4819 0 18 0C14.5181 0 11.7 3.01942 11.7 6.75C11.7 10.4806 14.5181 13.5 18 13.5ZM22.32 15.4286H21.8531C20.6831 16.0312 19.3837 16.3929 18 16.3929C16.6162 16.3929 15.3225 16.0312 14.1469 15.4286H13.68C10.1025 15.4286 7.2 18.5384 7.2 22.3714V24.1071C7.2 25.7042 8.40938 27 9.9 27H26.1C27.5906 27 28.8 25.7042 28.8 24.1071V22.3714C28.8 18.5384 25.8975 15.4286 22.32 15.4286ZM9.73688 14.621C9.08438 13.9279 8.19 13.5 7.2 13.5H3.6C1.61437 13.5 0 15.2297 0 17.3571V19.2857C0 20.3525 0.804375 21.2143 1.8 21.2143H5.50688C5.86125 18.3576 7.47 15.9529 9.73688 14.621Z" fill="black"/>
</svg>
